<svg xmlns="http://www.w3.org/2000/svg" viewBox="0 0 188.04 149.76"><g data-name="Layer 2"><g data-name="1"><path d="M104.42 100.39a3.55 3.55 0 01-1.62-.39c-2.11-1.1-2.67-4.14-1.28-6.94a.5.5 0 11.89.45c-1.12 2.26-.74 4.77.85 5.6s3.87-.3 5.07-2.52a.5.5 0 01.88.47 5.83 5.83 0 01-4.79 3.33zm51.22-89.33a.46.46 0 01-.23-.06.49.49 0 01-.2-.68 8.41 8.41 0 00.87-6.26A4.28 4.28 0 00154 1.43a4.22 4.22 0 00-3.34-.17 8.39 8.39 0 00-4.62 4.31.5.5 0 01-.67.23.51.51 0 01-.23-.68 9.42 9.42 0 015.23-4.81 5.24 5.24 0 014.11.23A5.22 5.22 0 01157 3.77a9.35 9.35 0 01-.95 7 .49.49 0 01-.41.29zm-6.52 117.86a2.72 2.72 0 01-2.68-2.63c0-.44.37-.83 1-1.42l.36-.34a135.27 135.27 0 01-12.17-30.79c-3.07-12.5-5.75-22.49-7.95-29.71v-.06a91 91 0 00-3.72-10.57c-2.3-5-3-12.06-.25-14.11 1-.8 3-1.13 6.48 1.8s5.92 7.69 8.08 12v.06c.37.74.73 1.48 1.09 2.22 3.21 6.54 6.25 12.72 10.38 12.83a.87.87 0 00.66-.17c.28-.33.06-1.37-.15-2.37a10.18 10.18 0 01-.2-4.84c.68-2.37 1.28-4.13 1.76-5.56 1.09-3.24 1.35-4.14.61-5.25a12.43 12.43 0 01-.66-1.2c-.9-1.74-2.4-4.66-4.9-5.83a30.13 30.13 0 00-7.54-2 .51.51 0 01-.41-.58.51.51 0 01.58-.41 31.41 31.41 0 017.8 2.13c2.81 1.31 4.4 4.42 5.36 6.28.24.46.44.86.6 1.1 1.05 1.56.59 2.9-.5 6.12-.47 1.42-1.07 3.17-1.74 5.52a9.29 9.29 0 00.22 4.35c.29 1.41.52 2.52-.06 3.22a1.69 1.69 0 01-1.45.53c-4.75-.13-7.91-6.57-11.26-13.39-.36-.75-.74-1.51-1.11-2.26v-.06c-2.11-4.21-4.62-8.93-7.81-11.64-1.62-1.38-3.85-2.8-5.23-1.76-2 1.51-1.72 7.9.56 12.9a92.07 92.07 0 013.76 10.63v.06c2.21 7.24 4.9 17.28 8 29.83a134.49 134.49 0 0012.21 30.78c.25.44-.12.79-.69 1.31a5 5 0 00-.7.74 1.73 1.73 0 001.71 1.58c7.38 0 23.55-2.13 31.9-9.93a1 1 0 00.32-.76 1 1 0 00-.3-.7 5.48 5.48 0 00-.78 0c-.7 0-1.13.09-1.35-.27-1.19-1.87-2.23-20-3.28-40-.33-6.24-.59-11.18-.74-12.47-.49-4.25-.82-5.7-4.93-10.74a61.84 61.84 0 01-4.54-7c-2.91-4.91-6.2-10.47-9.62-11.91-2.11-.9-6.12-1.65-11.6-2.18a.49.49 0 01-.45-.54.5.5 0 01.54-.45c5.66.54 9.67 1.3 11.9 2.24 3.72 1.58 7 7 10.09 12.33a59.57 59.57 0 004.46 6.88c4.06 5 4.6 6.59 5.14 11.26.16 1.33.42 6.28.75 12.54.67 12.86 1.92 36.52 3 39.33h.51c.74-.06 1.18-.08 1.46.17a2 2 0 01.7 1.47 2 2 0 01-.63 1.52c-8.59 8-25.07 10.17-32.59 10.2zM181 116.48zm-1.24-.72z"/><path d="M129.45 38.4a.47.47 0 01-.25-.07c-3-1.72-4.4-3.71-3.93-5.46.42-1.6 2.33-2.59 5-2.59h2.74a.5.5 0 01.48.52.47.47 0 01-.51.48h-2.71c-2.14 0-3.72.73-4 1.85s1 2.88 3.48 4.34a.5.5 0 01-.26.93zm20.35 30.8h-.08c-3.43-.09-5.9-3.52-7.66-6.5a.51.51 0 010-.53.53.53 0 01.49-.22 68.38 68.38 0 018.05 1.76.49.49 0 01.36.4c.07.46.17.91.26 1.34.29 1.41.53 2.52-.06 3.22a1.69 1.69 0 01-1.36.53zm-.06-1a.87.87 0 00.66-.17c.28-.33.06-1.37-.15-2.38-.07-.34-.15-.69-.21-1.06-1.58-.43-4.17-1.09-6.56-1.49 2.19 3.46 4.15 5 6.26 5.1zm.59-5.03a.39.39 0 01-.15 0 64.83 64.83 0 01-7.37-3.32l-1.16-.57-1 .13a.5.5 0 01-.52-.26c-.55-1.08-1.09-2.2-1.65-3.32l-1.11-2.26a.14.14 0 010-.06 96.24 96.24 0 00-2.37-4.47.49.49 0 010-.44.5.5 0 01.33-.29c2.43-.65 6.72-1.74 8.28-1.65 2.5.12 6.84 2.62 10 4.7a.49.49 0 01.23.47 20 20 0 01-1.06 3.79 106.7 106.7 0 00-1.74 5.5 5.27 5.27 0 00-.18 1.56.52.52 0 01-.2.42.53.53 0 01-.33.07zm-8.61-4.91h.14a13.39 13.39 0 011.4.67c1.62.81 4.51 2.26 6.59 3a5.84 5.84 0 01.2-1.16c.68-2.36 1.27-4.13 1.75-5.54a24.06 24.06 0 001-3.28c-4.25-2.73-7.54-4.28-9.28-4.37a37.93 37.93 0 00-7.35 1.46c.65 1.16 1.33 2.45 2.1 4v.06c.36.74.73 1.48 1.09 2.21.5 1 1 2 1.48 3a8.44 8.44 0 01.88-.05z"/><path d="M135.13 48.81a.53.53 0 01-.24-.06.51.51 0 01-.2-.68l20.52-37.75a8.41 8.41 0 00.87-6.26A4.28 4.28 0 00154 1.43a4.22 4.22 0 00-3.34-.17 8.39 8.39 0 00-4.62 4.31l-17.32 34.94a.5.5 0 01-.9-.44l17.34-34.95a9.42 9.42 0 015.21-4.81 5.24 5.24 0 014.11.23A5.22 5.22 0 01157 3.77a9.35 9.35 0 01-.95 7l-20.48 37.78a.49.49 0 01-.44.26zm-30.71 51.58a3.55 3.55 0 01-1.62-.39c-2.11-1.1-2.67-4.14-1.28-6.94l21.27-42.86a.49.49 0 01.67-.22.5.5 0 01.23.67l-21.28 42.86c-1.12 2.26-.74 4.77.85 5.6s3.87-.3 5.07-2.52L127.14 62a.49.49 0 01.67-.2.49.49 0 01.2.68l-18.8 34.6a5.83 5.83 0 01-4.79 3.31z"/><path d="M120.82 75.14a.49.49 0 01-.39-.19.5.5 0 010-.55l5-9.16a.49.49 0 01.31-.25l2.63-.68a.5.5 0 01.6.34c.67 2.24 1.4 4.75 2.15 7.46a.53.53 0 01-.05.39.5.5 0 01-.32.23c-2.37.57-5 1.23-7.61 1.87l-2.14.53zm5.32-9.23l-4.33 8 1-.25c2.39-.6 4.87-1.21 7.12-1.75-.65-2.33-1.28-4.51-1.87-6.48zM115 64.32c-2.53 0-4.81-.91-5.6-2.36-.36-.67-.71-2.06 1-3.83s7.17-4 11.48-5.59a.51.51 0 01.55.14.5.5 0 01.07.55l-5.39 10.67a.52.52 0 01-.36.27 11.11 11.11 0 01-1.75.15zm1.71-.64zm4.29-9.77c-5.3 2-8.8 3.71-9.92 4.9-.94 1-1.21 1.9-.8 2.67.73 1.35 3.48 2.13 6.1 1.74zm-10.42 22.52h-.11a4.84 4.84 0 01-3.47-2.34 2.71 2.71 0 010-2.39c.26-.55 1.28-1.41 6.91-3.27a.5.5 0 01.61.69l-3.49 7a.49.49 0 01-.45.31zm2.5-6.67c-4.59 1.59-5.12 2.25-5.18 2.37a1.72 1.72 0 000 1.53 3.73 3.73 0 002.41 1.69zm5.1 14.71a17.16 17.16 0 01-2.42-.14.53.53 0 01-.38-.27.5.5 0 010-.46l3.34-6.14a.46.46 0 01.29-.24c3.18-1 8.87-2.7 11.93-3.6a.51.51 0 01.38 0 .48.48 0 01.24.3c.7 2.59 1.4 5.23 2.08 7.84a.5.5 0 01-.36.61 72.27 72.27 0 01-15.1 2.1zm-1.55-1c4 .33 11.69-.8 15.93-1.85-.6-2.28-1.21-4.58-1.82-6.84-3.07.9-8.19 2.43-11.23 3.38zm54.19 66.29a39.78 39.78 0 01-11-1.71.49.49 0 01-.35-.37 85.21 85.21 0 00-7.34-19.16.48.48 0 010-.48.5.5 0 01.41-.26c.53 0 1.08-.08 1.65-.14a23.73 23.73 0 003.82-.46c5.26-.79 15-2.86 21.53-7.94a.54.54 0 01.46-.09.55.55 0 01.33.32c3.3 9.69 7.6 20 7.65 20.13a.52.52 0 010 .35c.02.12-3.42 9.81-17.16 9.81zm-10.42-2.59c20.73 5.81 26-5.73 26.6-7.37-.58-1.39-4.34-10.53-7.38-19.35-6.68 4.92-16.23 6.94-21.42 7.71a24.15 24.15 0 01-3.93.48l-.87.08a86.59 86.59 0 017 18.45zm-7.66-23.07h-.16a.5.5 0 010-1h.16c1.44 0 13.39-.19 22.4-6.08a.5.5 0 01.55.84c-9.24 6.05-21.45 6.24-22.95 6.24zm1.6-5.36a14.58 14.58 0 01-5.32-.83.5.5 0 11.37-.93c5.27 2.15 16.36-1 16.48-1a.49.49 0 01.61.35.48.48 0 01-.34.61 49.56 49.56 0 01-11.8 1.8zm.77-48.52c-7.89 0-10.45-3.8-10.56-4a.5.5 0 01.84-.55c.05.07 2.55 3.6 10.13 3.51a.5.5 0 110 1zm-6.6-27.1A10.11 10.11 0 01147 43a.5.5 0 01.15-1 11.22 11.22 0 005.94-.89.51.51 0 01.67.23.5.5 0 01-.23.67 11.58 11.58 0 01-5.02 1.11zm-6.02 16.49a.46.46 0 01-.36-.16c-.07-.07-1.7-1.85-1.35-5.55a.52.52 0 01.55-.45.5.5 0 01.45.55c-.31 3.22 1 4.71 1.08 4.77a.51.51 0 010 .71.5.5 0 01-.37.13zm12.21 13.18a12 12 0 01-3.25-.51l-.48-.13a.5.5 0 01.12-1 5.72 5.72 0 01.63.15 8.29 8.29 0 007.63-1.09.5.5 0 01.59.8 8.65 8.65 0 01-5.24 1.78zM41.94 120.7c-15.64-.52-27.45-8.65-33.1-13.45a.5.5 0 01-.17-.47 8.38 8.38 0 00-1.23-1.47c-1.1-1.15-1.72-1.83-1.48-2.45.4-1 1.73-1.43 3-1.83 1-.32 2.19-.68 2.42-1.27 4.85-12.4 9.58-23.66 12.11-29.33 1.28-2.88 3.81-7.19 6.05-11 1.3-2.22 2.54-4.31 3.36-5.85 1.35-2.58 2.33-4.71 3.19-6.58 1.3-2.86 2.24-4.92 3.66-6.41 3.88-4.1 15.94-10.75 21.52-11.85 3.44-.68 11-.66 16.69-.53 2.55.07 4.58.15 5.42.19 4.36-3 8-3.71 10.8-2.05a3.28 3.28 0 011.69 2.49c.56 4.64-7.74 12.74-14.42 19.25-3.06 3-5.71 5.58-6.55 7s-2.78 4.68-4.9 8.42c-5 8.77-11.29 19.69-13.1 21.67l-.07.08c-.89 1-1.26 3.39-1.7 6.11-.08.53-.17 1.08-.27 1.63-.71 4.27-1.79 8.63-4.77 11.61-1.4 1.4-3.2 4.72-5.35 9.87-.14.33.44 1.28.83 1.91.64 1 1.25 2 .93 2.88s-1.28.77-2.45.86a5 5 0 00-1.65.29.42.42 0 01-.46.28zm-32.3-14c5.59 4.7 17 12.45 32 13a4 4 0 012.26-.55 5.23 5.23 0 001.63-.28c.11-.32-.47-1.26-.89-2-.63-1-1.23-2-.89-2.82 2.23-5.34 4.05-8.67 5.56-10.18 2.78-2.79 3.81-7 4.5-11.07.09-.56.18-1.1.26-1.63.46-2.86.86-5.33 1.92-6.59l.08-.1c1.76-1.91 8.25-13.24 13-21.51 2.14-3.75 4-7 4.94-8.51s3.46-4 6.7-7.14c6.18-6 14.63-14.27 14.13-18.42a2.28 2.28 0 00-1.21-1.75c-2.47-1.46-5.79-.75-9.86 2.11a.49.49 0 01-.31.09c-.7 0-2.84-.12-5.56-.2-5.67-.13-13.13-.15-16.48.51-5.43 1.08-17.2 7.55-21 11.55-1.31 1.38-2.22 3.37-3.48 6.14-.86 1.91-1.85 4.07-3.24 6.67-.83 1.56-2.07 3.66-3.38 5.89-2.22 3.78-4.74 8-6 10.89-2.53 5.65-7.24 16.9-12.09 29.28-.4 1-1.75 1.46-3 1.87-1 .3-2.07.64-2.35 1.17a9.19 9.19 0 001.24 1.46c.88.94 1.43 1.55 1.52 2.07zm-1 0zM58.4 49.62a1 1 0 01-.51-.12 1.36 1.36 0 01-.44-1.31c.15-2.12 2.49-7.21 5.31-8.61a27.75 27.75 0 017.84-1.9c1.41-.19 2.55-.3 3.09-.35h.22a.51.51 0 01.5.27.5.5 0 01-.08.56l-1.88 2.14c-.47.55-.87 1-1.18 1.35-2.52 2.78-10.41 7.97-12.87 7.97zm.07-1c1.35 0 9-4.27 12-7.69.31-.34.7-.79 1.17-1.33l1-1.2-2 .24a27.48 27.48 0 00-7.53 1.8c-1.87.93-3.76 4.06-4.5 6.54a3.79 3.79 0 00-.14 1.67z"/><path d="M25.8 143.68c-7.85 0-19-2.37-25.73-14.17a.48.48 0 010-.42s3.91-10.2 8.64-22.4a.47.47 0 01.34-.3.52.52 0 01.45.1c5.55 4.71 17.15 12.7 32.48 13.21a.46.46 0 01.4.22.51.51 0 01.06.45c-3.84 10.32-7.18 21.79-7.22 21.91a.52.52 0 01-.34.34 37.32 37.32 0 01-9.08 1.06zM1.05 129.22c10.24 17.58 30.7 13.14 33.25 12.5.52-1.76 3.5-11.76 6.92-21-14.82-.71-26.12-8.2-31.87-13-4.21 10.85-7.71 19.98-8.3 21.5zm60.12-51.05a.53.53 0 01-.42-.21.5.5 0 010-.54c2.09-3.51 4.51-7.7 6.6-11.33a.55.55 0 01.36-.25c2.91-.42 7.3-1.06 11.72-1.76l2.16-.34c5.78-.94 10.78-1.75 12.79-.23a2.26 2.26 0 01.91 1.59c.29 2.56-3.73 7.66-34 13.06zm6.92-11.37c-1.88 3.26-4 7-5.93 10.19 24.16-4.4 32.45-9 32.12-11.77a1.29 1.29 0 00-.51-.92c-1.67-1.26-6.94-.4-12 .42l-2.17.35c-4.33.68-8.6 1.31-11.51 1.73zM58.4 49.62a1 1 0 01-.51-.12c-1.39-.94.91-5.33 1-5.52a.49.49 0 01.31-.25A53.19 53.19 0 0169.61 42a.49.49 0 01.49.31.49.49 0 01-.13.56c-2.83 2.55-9.36 6.75-11.57 6.75zm.09-.91zm0-.06c.93.06 5.89-2.51 9.66-5.51a53.52 53.52 0 00-8.45 1.5 8.24 8.24 0 00-1.23 4.01z"/><path d="M69.56 63.73a.5.5 0 01-.44-.75c2.14-3.73 4-7 4.93-8.48a9.72 9.72 0 011-1.31.46.46 0 01.35-.17c8.6-.45 18.85-.57 21.82 2.44a2.8 2.8 0 01.86 2.2c-.3 4.58-15.67 5.83-28.51 6.07zm6.1-9.73a8.79 8.79 0 00-.76 1c-.86 1.41-2.52 4.3-4.47 7.7 16.51-.38 26.45-2.28 26.64-5.12a1.8 1.8 0 00-.57-1.44c-2.99-3.01-16.18-2.38-20.84-2.14zm1.08-1.44a.51.51 0 01-.46-.3.49.49 0 01.1-.54c1.2-1.26 2.75-2.77 4.39-4.37 1.44-1.42 3-2.93 4.53-4.48a.48.48 0 01.39-.15c8.11.7 12.1 2.12 12.93 4.59a2.63 2.63 0 01-.29 2.47c-1.9 2.66-9.51 2.71-16.23 2.76h-.2c-1.9.02-3.6.02-5.16.02zm9.1-8.82c-1.48 1.49-3 3-4.38 4.32s-2.46 2.44-3.53 3.5h4.2c6.16 0 13.83-.1 15.43-2.34a1.64 1.64 0 00.15-1.57c-1.01-2.9-8.92-3.65-11.87-3.91zM74 38.31a.49.49 0 01-.32-.12.51.51 0 01-.06-.71 57.49 57.49 0 019.66-9 .5.5 0 01.57.82 56.76 56.76 0 00-9.47 8.83.49.49 0 01-.38.18zm-31.54 76.45a44.35 44.35 0 01-22.72-7 33.75 33.75 0 01-7.59-6.49.5.5 0 01.09-.7.5.5 0 01.7.08c.1.13 10 12.41 29.56 13.07a.51.51 0 01.48.52.5.5 0 01-.52.52zm1.76-14.38a.45.45 0 01-.2 0 .51.51 0 01-.25-.67 21.06 21.06 0 015-6.78c2.8-2.2 7.18-8.18 7.22-8.24a.5.5 0 01.81.59c-.18.25-4.51 6.15-7.41 8.44s-4.71 6.37-4.73 6.41a.52.52 0 01-.44.25zM57.08 54.4a.5.5 0 01-.48-.4c-.66-2.61 1-6.94 1.11-7.13a.5.5 0 01.93.37s-1.64 4.24-1.07 6.54a.5.5 0 01-.37.61z"/><path d="M37.41 110.84A24.56 24.56 0 0124 105.77a.49.49 0 01-.05-.7.51.51 0 01.71 0 24 24 0 0012.82 4.82.51.51 0 01.45.54.5.5 0 01-.52.41zM54.6 56.29a.46.46 0 01-.36-.16c-1.43-1.54-.89-4.64-.87-4.77A.49.49 0 0154 51a.5.5 0 01.4.58c-.13.76-.28 2.94.62 3.91a.5.5 0 010 .71.48.48 0 01-.42.09z"/></g></g></svg>